<?xml version="1.0" standalone="no"?>
<!DOCTYPE svg PUBLIC "-//W3C//DTD SVG 20010904//EN"
 "http://www.w3.org/TR/2001/REC-SVG-20010904/DTD/svg10.dtd">
<svg version="1.0" xmlns="http://www.w3.org/2000/svg"
 width="353.000000pt" height="353.000000pt" viewBox="0 0 353.000000 353.000000"
 preserveAspectRatio="xMidYMid meet">
<metadata>
Created by potrace 1.14, written by Peter Selinger 2001-2017
</metadata>
<g transform="translate(0.000000,353.000000) scale(0.100000,-0.100000)"
fill="#000000" stroke="none">
<path d="M1052 3515 c-339 -74 -583 -345 -618 -686 -6 -63 -8 -67 -43 -85 -59
-31 -173 -152 -209 -222 -158 -305 -40 -672 263 -816 71 -34 141 -54 205 -59
l35 -3 -3 -174 c-9 -470 -11 -575 -11 -697 l-1 -132 -60 -12 c-33 -6 -62 -15
-65 -18 -2 -4 38 2 89 12 l93 20 -4 176 c-2 97 -5 238 -6 315 l-3 138 41 26
c51 31 48 29 40 42 -5 7 -18 5 -41 -10 -20 -11 -36 -20 -38 -20 -1 0 -3 76 -5
168 l-2 168 33 2 c162 12 349 120 429 247 20 32 21 29 21 -45 0 -48 -11 -629
-17 -900 -2 -91 -4 -199 -4 -242 -1 -73 -2 -76 -23 -72 -13 2 4 -5 37 -16 67
-22 79 -24 71 -11 -5 8 -13 323 -19 745 l-2 149 56 30 c48 26 55 33 46 47 -9
15 -14 15 -54 -8 -24 -13 -46 -23 -48 -20 -5 5 -9 417 -4 422 2 2 29 7 59 10
262 31 497 198 610 431 56 117 73 190 74 325 1 63 -2 131 -5 150 -53 295 -279
539 -570 615 -85 23 -266 28 -347 10z"/>
<path d="M284 3076 c-11 -8 -33 -16 -49 -18 -28 -3 -27 -4 18 -20 26 -9 47
-13 47 -8 0 5 -5 12 -10 15 -6 4 -1 14 12 25 27 22 12 27 -18 6z"/>
<path d="M2196 3061 c-10 -11 -25 -17 -35 -14 -41 10 -28 -16 14 -29 41 -14
61 -9 34 7 -7 5 -2 16 12 31 17 18 19 24 7 24 -8 0 -23 -9 -32 -19z"/>
<path d="M2072 2280 c-13 -10 -29 -17 -36 -14 -8 3 -16 1 -19 -3 -3 -5 14 -17
39 -26 39 -14 61 -9 33 8 -7 5 -2 16 12 31 28 30 5 33 -29 4z"/>
<path d="M1818 1771 c-31 -28 -33 -33 -36 -110 -4 -72 -2 -81 13 -81 17 0 17
-2 3 -17 -9 -10 -19 -47 -23 -83 -9 -87 -17 -439 -10 -467 12 -51 54 -10 55
52 0 28 3 35 9 25 14 -24 -23 -167 -62 -243 -19 -38 -50 -109 -68 -158 -22
-62 -40 -96 -56 -106 -16 -11 -23 -23 -20 -35 3 -10 0 -18 -6 -18 -7 0 -22 -3
-35 -6 l-23 -7 22 42 c25 48 22 113 -8 196 l-18 50 -3 -108 -3 -109 -20 26
c-23 29 -82 66 -144 91 -37 14 -32 8 60 -80 55 -52 99 -100 97 -106 -2 -7 15
-8 50 -4 52 7 54 6 86 -30 38 -41 68 -43 66 -5 -1 14 -4 32 -8 42 -6 13 0 17
33 23 23 4 43 10 46 15 3 4 -13 3 -36 -2 -23 -6 -44 -7 -49 -2 -5 5 15 49 48
105 31 54 77 138 102 188 25 50 48 91 52 91 17 0 50 -66 59 -119 5 -33 19 -90
31 -128 12 -37 22 -72 23 -77 0 -6 -22 -15 -50 -22 -27 -6 -43 -12 -35 -13 8
0 31 3 51 8 21 5 41 6 46 2 21 -13 38 -58 38 -96 l0 -40 75 0 c67 0 75 2 75
19 0 13 -16 29 -45 46 -36 21 -46 32 -48 58 -3 27 0 32 25 38 15 3 42 10 58
15 26 8 24 8 -10 3 -22 -3 -49 -8 -61 -10 -19 -5 -23 4 -48 123 -14 70 -29
139 -31 153 -13 70 -48 189 -70 238 -14 30 -25 57 -25 60 0 13 39 -48 58 -90
11 -27 26 -48 32 -48 18 0 23 27 11 62 -6 18 -10 35 -9 38 2 3 -19 35 -45 71
-47 66 -47 67 -47 146 0 70 -3 85 -26 119 -15 21 -33 43 -40 47 -29 17 -15 37
26 37 l40 0 0 55 c0 30 5 55 10 55 22 0 8 44 -24 76 -29 29 -41 34 -80 34 -36
0 -52 -6 -78 -29z m14 -492 l-10 -34 -1 45 c-1 31 2 41 10 33 7 -7 7 -21 1
-44z"/>
<path d="M2731 891 l-1 -84 -24 26 c-24 26 -64 50 -113 67 -20 7 -3 -13 57
-69 l85 -79 -35 -10 c-19 -6 -26 -10 -15 -10 21 0 76 15 62 17 -4 1 0 15 9 33
19 36 15 103 -10 159 -14 34 -14 33 -15 -50z"/>
<path d="M930 820 c-1 -97 -2 -103 -14 -74 -8 17 -27 40 -42 51 -34 24 -104
55 -103 45 1 -4 34 -37 74 -74 40 -37 71 -69 69 -70 -2 -2 26 -12 62 -22 37
-9 68 -15 71 -13 2 3 -19 10 -47 17 -47 11 -51 15 -44 34 13 35 8 139 -9 176
-15 35 -15 34 -17 -70z"/>
<path d="M3014 765 c-4 -9 -2 -21 4 -27 15 -15 44 -1 40 19 -4 23 -36 29 -44
8z"/>
<path d="M2775 732 c31 -14 83 -24 65 -13 -8 5 -31 11 -50 15 -24 4 -28 3 -15
-2z"/>
<path d="M2550 710 c-36 -10 -59 -19 -52 -19 21 -2 106 21 117 30 5 5 7 9 5 8
-3 0 -34 -9 -70 -19z"/>
<path d="M2638 723 c7 -3 16 -2 19 1 4 3 -2 6 -13 5 -11 0 -14 -3 -6 -6z"/>
<path d="M3066 704 c-9 -8 -16 -20 -16 -25 0 -6 8 -2 17 8 10 10 22 21 28 25
6 5 6 8 -2 8 -6 0 -19 -7 -27 -16z"/>
<path d="M2868 703 c7 -3 16 -2 19 1 4 3 -2 6 -13 5 -11 0 -14 -3 -6 -6z"/>
<path d="M3031 693 c-1 -27 -12 -28 -75 -7 -26 9 -49 14 -52 12 -2 -3 24 -13
58 -23 35 -9 76 -22 91 -27 15 -6 30 -8 34 -5 3 3 -6 9 -20 12 -18 5 -27 15
-30 33 -3 23 -4 24 -6 5z"/>
<path d="M800 672 c-36 -8 -60 -17 -55 -18 6 -2 44 5 85 15 41 10 66 19 55 19
-11 0 -49 -7 -85 -16z"/>
<path d="M2445 685 c-5 -2 -36 -9 -68 -15 -32 -7 -57 -14 -54 -16 5 -5 148 24
156 31 5 6 -19 5 -34 0z"/>
<path d="M1075 650 c11 -5 27 -9 35 -9 9 0 8 4 -5 9 -11 5 -27 9 -35 9 -9 0
-8 -4 5 -9z"/>
<path d="M2278 643 c6 -2 18 -2 25 0 6 3 1 5 -13 5 -14 0 -19 -2 -12 -5z"/>
<path d="M3115 630 c11 -5 27 -9 35 -9 9 0 8 4 -5 9 -11 5 -27 9 -35 9 -9 0
-8 -4 5 -9z"/>
<path d="M3185 610 c11 -5 27 -9 35 -9 9 0 8 4 -5 9 -11 5 -27 9 -35 9 -9 0
-8 -4 5 -9z"/>
<path d="M1270 596 c0 -2 7 -7 16 -10 8 -3 12 -2 9 4 -6 10 -25 14 -25 6z"/>
<path d="M3325 570 c49 -16 91 -27 93 -25 5 4 -159 55 -174 54 -5 0 31 -14 81
-29z"/>
<path d="M1312 585 c9 -9 211 -65 217 -60 2 3 2 5 0 5 -2 0 -51 14 -109 30
-112 32 -116 33 -108 25z"/>
<path d="M1915 583 c-31 -7 -40 -21 -11 -16 15 3 29 9 32 14 3 5 4 8 2 8 -2
-1 -12 -3 -23 -6z"/>
<path d="M1838 563 c6 -2 18 -2 25 0 6 3 1 5 -13 5 -14 0 -19 -2 -12 -5z"/>
<path d="M917 443 c51 -2 135 -2 185 0 51 1 10 3 -92 3 -102 0 -143 -2 -93 -3z"/>
<path d="M1029 305 c-2 -1 -101 -6 -219 -9 -329 -10 -509 -23 -610 -45 -88
-18 -7 -42 195 -56 312 -23 588 -30 1275 -30 771 1 1083 10 1378 41 147 16
139 45 -18 59 -36 3 -79 8 -95 10 -17 2 -91 7 -165 11 -74 3 -164 8 -200 11
-77 5 -1536 13 -1541 8z"/>
<path d="M1079 55 c-2 -1 -44 -6 -93 -9 -86 -6 -105 -10 -95 -21 27 -27 1130
-27 1157 0 5 4 -24 12 -78 21 -38 6 -885 15 -891 9z"/>
</g>
</svg>
